<?xml version="1.0" standalone="no"?>
<!DOCTYPE svg PUBLIC "-//W3C//DTD SVG 20010904//EN"
 "http://www.w3.org/TR/2001/REC-SVG-20010904/DTD/svg10.dtd">
<svg version="1.0" xmlns="http://www.w3.org/2000/svg"
 width="1024.000000pt" height="1024.000000pt" viewBox="0 0 1024.000000 1024.000000"
 preserveAspectRatio="xMidYMid meet">
<metadata>
Created by potrace 1.14, written by Peter Selinger 2001-2017
</metadata>
<g transform="translate(0.000000,1024.000000) scale(0.100000,-0.100000)"
fill="#000000" stroke="none">
<path d="M4785 9514 c-281 -22 -672 -93 -920 -168 -455 -137 -851 -324 -1227
-578 -1041 -705 -1736 -1813 -1907 -3039 -35 -252 -44 -424 -38 -723 9 -469
69 -845 198 -1252 84 -265 240 -621 384 -875 201 -354 511 -745 810 -1022 722
-670 1564 -1055 2560 -1174 207 -24 732 -24 958 0 537 59 1025 200 1490 433
265 133 448 250 743 477 l24 19 0 -476 0 -476 845 0 846 0 -4 2403 c-4 2587
-1 2434 -53 2757 -94 589 -318 1170 -642 1670 -673 1038 -1714 1737 -2922
1961 -265 49 -411 61 -760 64 -184 1 -357 1 -385 -1z m727 -1634 c880 -133
1644 -662 2090 -1450 353 -622 453 -1345 282 -2040 -168 -684 -604 -1302
-1193 -1693 -149 -99 -256 -161 -377 -217 -404 -188 -764 -270 -1189 -271
-213 -1 -342 10 -522 42 -663 118 -1325 518 -1737 1049 -349 450 -553 947
-606 1479 -15 150 -12 456 5 605 75 641 377 1243 857 1711 146 143 236 217
378 312 445 296 888 452 1410 497 118 10 470 -4 602 -24z"/>
</g>
</svg>
